Cemetery Junction 2010 800p BRRip H264.mp4

File Size
Format : MPEG-4
Format profile : Base Media
Codec ID : isom
File size : 3.70 GiB
Duration : 1h 34mn
Overall bit rate : 5 588 Kbps

Video
ID : 1
Format : AVC
Format/Info : Advanced Video Codec
Format profile : High@L4.1
Format settings, CABAC : Yes
Format settings, ReFrames : 3 frames
Codec ID : avc1
Codec ID/Info : Advanced Video Coding
Duration : 1h 34mn
Bit rate mode : Variable
Bit rate : 4 949 Kbps
Maximum bit rate : 18.0 Mbps
Width : 1 920 pixels
Height : 800 pixels
Display aspect ratio : 2.40:1
Frame rate mode : Constant
Frame rate : 23.976 fps
Resolution : 24 bits
Colorimetry : 4:2:0
Scan type : Progressive
Bits/(Pixel*Frame) : 0.134
Stream size : 3.27 GiB (88%)

Audio #1
ID : 2
Format : AAC
Format/Info : Advanced Audio Codec
Format version : Version 4
Format profile : LC
Format settings, SBR : No
Codec ID : 40
Duration : 1h 34mn
Bit rate mode : Variable
Bit rate : 192 Kbps
Maximum bit rate : 199 Kbps
Channel(s) : 2 channels
Channel positions : L R
Sampling rate : 48.0 KHz
Resolution : 16 bits
Stream size : 129 MiB (3%)

Audio #2
ID : 3
Format : AAC
Format/Info : Advanced Audio Codec
Format version : Version 4
Format profile : LC
Format settings, SBR : No
Codec ID : 40
Duration : 1h 34mn
Bit rate mode : Variable
Bit rate : 448 Kbps
Maximum bit rate : 464 Kbps
Channel(s) : 6 channels
Channel positions : Front: L C R, Rear: L R, LFE
Sampling rate : 48.0 KHz
Resolution : 16 bits
Stream size : 303 MiB (8%)

English SRT : External

Language : English


 
http://www.imdb.com/title/tt1196204/

Release Date: 14 April 2010 (UK) 

Genre: Comedy | Drama 

Plot: A 1970s-set comedy centered on three upstart professional men working at an insurance company.

Cast: 
Tom Hughes ... Bruce Pearson
Ricky Gervais ... Mr. Taylor
Christian Cooke ... Freddie Taylor
Ralph Fiennes ... Mr Kendrick
Matthew Goode ... Mike Ramsay
Jack Doolan ... Snork
Emily Watson ... Mrs Kendrick
Steve Speirs ... Sgt. Wyn Davies
Jessica Jones ... Girl in Street
Julia Davis ... Mrs Taylor
Madeleine Dunbar ... Wife in Bar
Andrew Brooke ... Husband in Bar
Burn Gorman ... PC Renwick
Anne Reid ... Freddie's Gran
Francis Magee ... Mr Pearson